<svg width="36" height="36" viewBox="0 0 36 36" fill="none" xmlns="http://www.w3.org/2000/svg">
<path d="M18 34C26.8366 34 34 26.8366 34 18C34 9.1634 26.8366 2 18 2C9.1634 2 2 9.1634 2 18C2 26.8366 9.1634 34 18 34Z" fill="url(#paint0_linear_17_230)"/>
<path d="M18 30C24.6273 30 30 24.6273 30 18C30 11.3727 24.6273 6 18 6C11.3727 6 6 11.3727 6 18C6 24.6273 11.3727 30 18 30Z" fill="#030F1C"/>
<path d="M29 18C29 11.9249 24.0751 7 18 7C11.9249 7 7 11.9249 7 18C7 24.0751 11.9249 29 18 29C24.0751 29 29 24.0751 29 18Z" stroke="#F7F7F8" stroke-width="4" stroke-miterlimit="16" stroke-linecap="round" stroke-dasharray="3 8"/>
<path d="M18 23C20.7614 23 23 20.7614 23 18C23 15.2386 20.7614 13 18 13C15.2386 13 13 15.2386 13 18C13 20.7614 15.2386 23 18 23Z" fill="#F7F7F8"/>
<defs>
<linearGradient id="paint0_linear_17_230" x1="2" y1="2" x2="25.8013" y2="39.7646" gradientUnits="userSpaceOnUse">
<stop offset="1" stop-color="#3B82F6"/>
</linearGradient>
</defs>
</svg>
